<?xml version="1.0" encoding="UTF-8" standalone="no"?>
<svg
   xmlns:dc="http://purl.org/dc/elements/1.1/"
   xmlns:cc="http://creativecommons.org/ns#"
   xmlns:rdf="http://www.w3.org/1999/02/22-rdf-syntax-ns#"
   xmlns:svg="http://www.w3.org/2000/svg"
   xmlns="http://www.w3.org/2000/svg"
   xmlns:sodipodi="http://sodipodi.sourceforge.net/DTD/sodipodi-0.dtd"
   xmlns:inkscape="http://www.inkscape.org/namespaces/inkscape"
   t="1580388890042"
   class="icon"
   viewBox="0 0 1024 1024"
   version="1.1"
   p-id="516"
   width="200"
   height="200"
   id="svg28"
   sodipodi:docname="icon.svg"
   inkscape:version="0.92.4 (5da689c313, 2019-01-14)">
  <metadata
     id="metadata32">
    <rdf:RDF>
      <cc:Work
         rdf:about="">
        <dc:format>image/svg+xml</dc:format>
        <dc:type
           rdf:resource="http://purl.org/dc/dcmitype/StillImage" />
      </cc:Work>
    </rdf:RDF>
  </metadata>
  <sodipodi:namedview
     pagecolor="#ffffff"
     bordercolor="#666666"
     borderopacity="1"
     objecttolerance="10"
     gridtolerance="10"
     guidetolerance="10"
     inkscape:pageopacity="0"
     inkscape:pageshadow="2"
     inkscape:window-width="2560"
     inkscape:window-height="1373"
     id="namedview30"
     showgrid="false"
     inkscape:zoom="2.0682873"
     inkscape:cx="100.58875"
     inkscape:cy="72.549673"
     inkscape:window-x="-9"
     inkscape:window-y="-9"
     inkscape:window-maximized="1"
     inkscape:current-layer="svg28" />
  <defs
     id="defs24">
    <style
       type="text/css"
       id="style22">html, * { user-select: text !important; }
</style>
  </defs>
  <path
     d="M 848.67817,420.68338 A 178.06364,178.06364 0 0 0 677.7712,551.801 l -55.59814,-5.3408 a 193.7123,193.7123 0 0 0 -192.00325,-175.50006 189.49304,189.49304 0 0 0 -28.19964,2.08295 l -16.0225,-44.38239 a 130.53015,130.53015 0 1 0 -64.09014,16.87705 129.46199,129.46199 0 0 0 21.3634,-1.2818 l 14.7407,41.23129 A 196.91681,196.91681 0 0 0 256.48565,652.79633 l -29.90869,17.25089 a 130.1563,130.1563 0 0 0 -95.01358,-41.60514 132.34604,132.34604 0 0 0 0,264.63869 131.54491,131.54491 0 0 0 130.53017,-132.23922 133.78807,133.78807 0 0 0 -10.6817,-52.12664 l 29.69509,-17.30429 a 191.94983,191.94983 0 0 0 148.90267,70.71273 194.62025,194.62025 0 0 0 191.46915,-169.62511 l 49.77664,4.967 v 2.6704 A 177.31592,177.31592 0 1 0 848.57127,420.79018 Z M 258.0345,212.39058 a 64.090095,64.090095 0 1 1 64.09008,64.73098 64.998035,64.998035 0 0 1 -64.09008,-64.67758 z M 129.85433,828.02934 a 64.784405,64.784405 0 0 1 0,-129.51542 64.784405,64.784405 0 0 1 0,129.51542 z M 434.28226,682.49142 A 113.49287,113.49287 0 1 1 546.43993,568.99855 112.58493,112.58493 0 0 1 434.60271,682.54482 Z m 416.58561,16.0225 a 97.310127,97.310127 0 1 1 96.1352,-97.31013 96.776042,96.776042 0 0 1 -95.8682,97.41698 z"
     p-id="517"
     id="path26"
     inkscape:connector-curvature="0"
     style="fill:#ffffff;stroke-width:1.04313302" />
</svg>
